<svg xmlns="http://www.w3.org/2000/svg" viewBox="0 0 96 80" shape-rendering="crispEdges" role="img" aria-label="cute pixel ragdoll cat">
  <rect width="96" height="80" fill="none"/>
  <rect x="24" y="10" width="12" height="14" fill="#8a6145"/>
  <rect x="60" y="10" width="12" height="14" fill="#f2e5d2"/>
  <rect x="20" y="22" width="56" height="30" fill="#f2e5d2"/>
  <rect x="20" y="22" width="28" height="30" fill="#8a6145"/>
  <rect x="26" y="18" width="36" height="10" fill="#caa17c"/>
  <rect x="30" y="30" width="8" height="8" fill="#7db7ff"/>
  <rect x="52" y="30" width="8" height="8" fill="#7db7ff"/>
  <rect x="32" y="32" width="2" height="2" fill="#ffffff"/>
  <rect x="54" y="32" width="2" height="2" fill="#ffffff"/>
  <rect x="42" y="38" width="4" height="4" fill="#111111"/>
  <rect x="36" y="44" width="16" height="4" fill="#fff8ed"/>
  <rect x="14" y="36" width="8" height="18" fill="#8a6145"/>
  <rect x="68" y="36" width="8" height="18" fill="#f2e5d2"/>
  <rect x="24" y="54" width="16" height="10" fill="#8a6145"/>
  <rect x="56" y="54" width="16" height="10" fill="#f2e5d2"/>
  <rect x="70" y="48" width="8" height="8" fill="#f2e5d2"/>
  <rect x="76" y="40" width="6" height="8" fill="#f2e5d2"/>
</svg>
